<?xml version="1.0" encoding="UTF-8"?>
<svg version="1.1" xmlns="http://www.w3.org/2000/svg" width="690" height="765">
<path d="M0 0 C0.83089142 0.00149048 1.66178284 0.00298096 2.51785278 0.0045166 C15.30670575 0.04568029 27.77601493 0.56995918 40.3125 3.3125 C41.59382813 3.5909375 42.87515625 3.869375 44.1953125 4.15625 C47.94756308 5.08037116 51.63305418 6.13765626 55.3125 7.3125 C56.07385254 7.55484375 56.83520508 7.7971875 57.61962891 8.046875 C83.39326712 16.38765976 105.80959129 28.54137089 126.3125 46.3125 C127.281875 47.15167969 128.25125 47.99085937 129.25 48.85546875 C131.64031177 50.97249792 133.98620739 53.12553163 136.3125 55.3125 C136.97121094 55.91835937 137.62992188 56.52421875 138.30859375 57.1484375 C164.97255646 82.57845425 181.44785787 117.84187966 189.3125 153.3125 C189.49184082 154.08867676 189.67118164 154.86485352 189.85595703 155.66455078 C195.08404201 179.20910428 194.70620796 207.84774686 189.3125 231.3125 C189.14621094 232.07369141 188.97992187 232.83488281 188.80859375 233.61914062 C179.99025054 273.17104293 158.14596377 312.61560756 126.3125 338.3125 C125.82442871 338.71291504 125.33635742 339.11333008 124.83349609 339.52587891 C116.38654501 346.43839729 107.72499514 352.77643548 98.3125 358.3125 C97.63155273 358.7132373 96.95060547 359.11397461 96.24902344 359.52685547 C76.06073509 371.19778243 54.23126849 378.33314886 31.3125 382.3125 C30.58756348 382.44237305 29.86262695 382.57224609 29.11572266 382.70605469 C-17.65675427 390.72419359 -69.0923255 378.24351912 -108.09570312 351.671875 C-116.66498216 345.54575212 -124.63916406 338.8083793 -132.26953125 331.5546875 C-134.33489633 329.63947013 -136.42339769 327.97776474 -138.6875 326.3125 C-139.20207764 326.61728271 -139.71665527 326.92206543 -140.24682617 327.23608398 C-142.78916799 328.74137042 -145.33200405 330.24581888 -147.875 331.75 C-148.84300537 332.32258545 -149.81101074 332.8951709 -150.80834961 333.48510742 C-156.58091626 336.89619016 -162.36020954 340.29526907 -168.1484375 343.6796875 C-168.77939835 344.04878738 -169.41035919 344.41788727 -170.06044006 344.798172 C-173.15469729 346.60810166 -176.24982516 348.41651151 -179.34643555 350.22241211 C-186.40308113 354.34500233 -186.40308113 354.34500233 -193.37841797 358.60302734 C-193.97504745 358.97497726 -194.57167694 359.34692719 -195.18638611 359.73014832 C-196.83996882 360.76559248 -198.48933052 361.80776864 -200.13842773 362.8503418 C-202.6875 364.3125 -202.6875 364.3125 -204.6875 364.3125 C-204.32398438 364.90788574 -203.96046875 365.50327148 -203.5859375 366.11669922 C-201.948554 368.80421233 -200.31795587 371.49577894 -198.6875 374.1875 C-198.11515625 375.12464844 -197.5428125 376.06179688 -196.953125 377.02734375 C-196.41171875 377.92324219 -195.8703125 378.81914062 -195.3125 379.7421875 C-194.80976563 380.56960449 -194.30703125 381.39702148 -193.7890625 382.24951172 C-192.6875 384.3125 -192.6875 384.3125 -192.6875 386.3125 C-194.8894043 387.83032227 -194.8894043 387.83032227 -198.01171875 389.62890625 C-198.5761116 389.95692734 -199.14050446 390.28494843 -199.72200012 390.62290955 C-201.60245001 391.7138059 -203.48871595 392.79422805 -205.375 393.875 C-206.69706957 394.63983906 -208.01867785 395.405476 -209.33984375 396.171875 C-212.0898474 397.76629796 -214.84182194 399.35723837 -217.59521484 400.94580078 C-223.2151051 404.19156501 -228.81064268 407.47861237 -234.40612793 410.76620483 C-237.40632555 412.52838149 -240.40831424 414.28750152 -243.41015625 416.046875 C-244.00698212 416.39674973 -244.60380798 416.74662445 -245.21871948 417.10710144 C-248.9135681 419.27308042 -252.6089464 421.43815325 -256.30465698 423.60266113 C-267.77621514 430.32137326 -279.24651963 437.04178431 -290.6875 443.8125 C-299.02982023 448.74944392 -307.38643512 453.66166772 -315.75 458.5625 C-316.6613118 459.09657974 -316.6613118 459.09657974 -317.59103394 459.64144897 C-323.85494569 463.31228329 -330.1200163 466.98112826 -336.38731384 470.6461792 C-338.89301584 472.1117164 -341.39819158 473.57815198 -343.90335083 475.0446167 C-345.7304814 476.11358063 -347.55846169 477.18108101 -349.38647461 478.24853516 C-354.90530706 481.47571738 -360.40217769 484.73212673 -365.84765625 488.08203125 C-366.77892334 488.65268311 -367.71019043 489.22333496 -368.66967773 489.8112793 C-370.38185423 490.8648412 -372.08878668 491.92699294 -373.78930664 492.99926758 C-374.53172607 493.4558374 -375.27414551 493.91240723 -376.0390625 494.3828125 C-376.99546631 494.98246826 -376.99546631 494.98246826 -377.97119141 495.59423828 C-379.6875 496.3125 -379.6875 496.3125 -382.6875 495.3125 C-384.31884766 492.99707031 -384.31884766 492.99707031 -386.1015625 489.890625 C-386.4283046 489.3274205 -386.75504669 488.764216 -387.09169006 488.1839447 C-388.17363934 486.31481148 -389.24287978 484.43871134 -390.3125 482.5625 C-391.07042174 481.24855712 -391.82930714 479.93516968 -392.58911133 478.62231445 C-394.17104866 475.88722168 -395.74877193 473.14976137 -397.32373047 470.41064453 C-400.61900058 464.68751163 -403.96766265 458.99587567 -407.31515503 453.30319214 C-409.06956376 450.31828763 -410.82008237 447.33110604 -412.5703125 444.34375 C-412.91076096 443.76270004 -413.25120941 443.18165009 -413.60197449 442.58299255 C-419.31194463 432.83480676 -425.00060488 423.07416007 -430.6875 413.3125 C-428.41270974 410.83149128 -426.07718921 409.22840909 -423.1640625 407.5546875 C-422.24028809 407.02029053 -421.31651367 406.48589355 -420.36474609 405.93530273 C-418.85388428 405.07014038 -418.85388428 405.07014038 -417.3125 404.1875 C-415.12995869 402.92621314 -412.94767842 401.66447449 -410.765625 400.40234375 C-410.19391571 400.07248978 -409.62220642 399.7426358 -409.03317261 399.40278625 C-402.35745114 395.55066126 -395.71001445 391.65052783 -389.0625 387.75 C-387.81853804 387.02064345 -386.57456018 386.29131401 -385.33056641 385.56201172 C-377.22932846 380.81124534 -369.14059517 376.03959402 -361.05834961 371.2565918 C-353.59125687 366.84029121 -346.11001095 362.44833083 -338.625 358.0625 C-338.01679413 357.7061145 -337.40858826 357.349729 -336.7819519 356.98254395 C-331.78915907 354.05717534 -326.7957724 351.1328209 -321.80236816 348.20849609 C-317.45130661 345.66029516 -313.10047039 343.11171011 -308.75 340.5625 C-307.83684525 340.02743835 -307.83684525 340.02743835 -306.90524292 339.48156738 C-300.03364921 335.45453962 -293.16604532 331.42096264 -286.31176758 327.36450195 C-284.57973304 326.34017006 -282.84651939 325.31782897 -281.11206055 324.29760742 C-276.39701222 321.52186568 -271.70062621 318.71877525 -267.02606201 315.8755188 C-264.36779324 314.26225566 -261.70178996 312.66205054 -259.03466797 311.06347656 C-257.72710916 310.2755097 -256.42300736 309.4817756 -255.12255859 308.68212891 C-253.30636928 307.56616845 -251.47922229 306.47070563 -249.6484375 305.37890625 C-248.59446777 304.73896729 -247.54049805 304.09902832 -246.45458984 303.43969727 C-243.6875 302.3125 -243.6875 302.3125 -241.47607422 302.8762207 C-239.44573269 304.50664648 -238.39288275 305.96353568 -237.109375 308.2265625 C-236.67109375 308.98710937 -236.2328125 309.74765625 -235.78125 310.53125 C-235.3378125 311.3253125 -234.894375 312.119375 -234.4375 312.9375 C-233.97859375 313.73929687 -233.5196875 314.54109375 -233.046875 315.3671875 C-231.91742248 317.3437294 -230.79816598 319.32535989 -229.6875 321.3125 C-222.73591002 317.9537414 -216.05733202 314.28148753 -209.4375 310.3125 C-207.51437155 309.16788703 -205.59119292 308.02335838 -203.66796875 306.87890625 C-202.197229 306.00129639 -202.197229 306.00129639 -200.69677734 305.10595703 C-195.72209049 302.14116313 -190.73585608 299.1959576 -185.75 296.25 C-184.84540039 295.71439453 -183.94080078 295.17878906 -183.00878906 294.62695312 C-178.25664349 291.81602598 -173.48972754 289.03702909 -168.6875 286.3125 C-169.97284216 283.03739458 -171.34403234 279.82811469 -172.82421875 276.63671875 C-181.64659354 257.27057255 -188.13051151 237.49683781 -190.6875 216.3125 C-190.7810376 215.5690332 -190.8745752 214.82556641 -190.97094727 214.05957031 C-196.74034106 163.50186568 -182.22954113 113.52860796 -151.38671875 73.3125 C-143.60753485 63.58506578 -135.28913022 54.26661802 -125.6875 46.3125 C-124.86507813 45.57902344 -124.04265625 44.84554687 -123.1953125 44.08984375 C-89.32073142 14.48477358 -44.51099383 -0.19830941 0 0 Z " fill="#67BDE9" transform="translate(430.6875,13.6875)"/>
<path d="M0 0 C2.83390222 0.01613366 5.66638338 -0.00000247 8.50024414 -0.01904297 C53.01862626 -0.06824463 98.52569882 14.28112221 135.26782227 39.39111328 C135.86062988 39.79007812 136.4534375 40.18904297 137.06420898 40.60009766 C146.36512466 46.89018057 154.87875163 53.94193852 163.26782227 61.39111328 C163.78538086 61.84550781 164.30293945 62.29990234 164.83618164 62.76806641 C170.77918165 67.98837301 176.19441158 73.3337684 181.26782227 79.39111328 C182.19154152 80.44370765 183.11752325 81.49431879 184.04516602 82.54345703 C194.61670787 94.56072318 203.34375394 107.49915606 211.26782227 121.39111328 C211.64438965 122.05095215 212.02095703 122.71079102 212.40893555 123.390625 C232.99421305 159.87831491 240.46265019 198.87215559 242.26782227 240.39111328 C84.19782227 240.39111328 -73.87217773 240.39111328 -236.73217773 240.39111328 C-236.73217773 218.18760323 -236.73217773 218.18760323 -235.54467773 209.57861328 C-235.34285889 208.0719812 -235.34285889 208.0719812 -235.13696289 206.53491211 C-227.81379422 154.72410332 -204.36791327 107.58871468 -167.73217773 70.39111328 C-166.72993978 69.35165024 -165.72857518 68.31134409 -164.72827148 67.27001953 C-150.39056147 52.56519888 -133.59259979 40.45187246 -115.73217773 30.39111328 C-115.07523926 30.01744629 -114.41830078 29.6437793 -113.74145508 29.25878906 C-102.47401936 22.89967071 -90.85287698 17.89139835 -78.73217773 13.39111328 C-78.07540039 13.14377441 -77.41862305 12.89643555 -76.74194336 12.64160156 C-69.02082239 9.76771993 -61.17947193 7.65189713 -53.16967773 5.76611328 C-52.36288574 5.57186768 -51.55609375 5.37762207 -50.72485352 5.17749023 C-33.97389756 1.41084234 -17.14037886 -0.11542343 0 0 Z " fill="#67BDE9" transform="translate(428.732177734375,423.60888671875)"/>
<path d="M0 0 C0 12.21 0 24.42 0 37 C-5.94 37.66 -11.88 38.32 -18 39 C-51.79617967 45.66056096 -82.80701783 64.09155975 -102.58813477 92.75805664 C-103.74645215 94.49276163 -104.8790325 96.24095857 -106 98 C-107.06154297 99.66289062 -107.06154297 99.66289062 -108.14453125 101.359375 C-125.2815336 129.80090088 -131.64986701 166.79439727 -123.97485352 199.28564453 C-118.36288509 220.34042685 -109.03169677 239.34595146 -95 256 C-94.36239746 256.76521973 -94.36239746 256.76521973 -93.71191406 257.54589844 C-70.07280569 285.5962174 -35.9177794 299.73474733 0 303 C0 315.21 0 327.42 0 340 C-23.80507991 340 -47.84948423 333.95884162 -69 323 C-69.75603516 322.61440918 -70.51207031 322.22881836 -71.29101562 321.83154297 C-81.69187964 316.47332562 -91.01574013 310.49467014 -100 303 C-100.5667041 302.53867676 -101.1334082 302.07735352 -101.71728516 301.60205078 C-136.48303148 273.29677124 -158.11376924 232.67660157 -163.68652344 188.19433594 C-168.16309287 142.57795401 -155.12827302 97.76469915 -126.21313477 62.22827148 C-100.08224715 30.91983526 -65.28713622 9.52937315 -25.0625 1.75 C-24.18086182 1.57428467 -23.29922363 1.39856934 -22.39086914 1.2175293 C-14.62845492 -0.18807211 -8.21573803 0 0 0 Z " fill="#FDFEFE" transform="translate(425,36)"/>
<path d="M0 0 C0 8.25 0 16.5 0 25 C-9 22 -9 22 -12.7109375 20.68359375 C-30.53753411 14.62103051 -55.02950724 10.85207291 -73 18 C-81.71656693 22.43671016 -86.72571826 26.72515171 -90 36 C-91.00903638 43.63817074 -89.74933258 50.28041694 -86 57 C-83.68726558 59.8971941 -83.68726558 59.8971941 -81 62 C-80.24332031 62.63292969 -79.48664063 63.26585937 -78.70703125 63.91796875 C-68.88495294 71.47232335 -56.92930074 75.76906458 -45.5625 80.4375 C-23.91357598 89.34230733 -3.30359665 98.45783199 6.8359375 120.8515625 C11.11289906 132.41945182 10.85237448 149.10588826 6.2734375 160.48828125 C4.18765487 164.60226354 1.77285724 168.32063174 -1 172 C-1.5775 172.86625 -2.155 173.7325 -2.75 174.625 C-14.99222776 187.54735153 -33.77647021 192.41289966 -51.05200195 193.12597656 C-74.54594902 193.67078373 -100.45235721 193.77382139 -122 183 C-122 174.42 -122 165.84 -122 157 C-119.03 158.11375 -119.03 158.11375 -116 159.25 C-91.20180033 168.25329969 -59.25932358 174.30958145 -34.40234375 162.796875 C-28.84982376 159.61248967 -24.93202484 155.22354588 -22.5390625 149.21484375 C-20.70158368 141.66520252 -20.93754012 132.77076647 -25 126 C-31.9215447 116.22194479 -41.45518304 112.16641473 -52.22640991 107.63851929 C-55.57547382 106.22787967 -58.91240251 104.7890752 -62.25 103.3515625 C-62.91384201 103.06594955 -63.57768402 102.78033661 -64.26164246 102.48606873 C-91.45749422 90.75986389 -91.45749422 90.75986389 -102 82 C-102.97066406 81.28650391 -102.97066406 81.28650391 -103.9609375 80.55859375 C-109.40475188 76.38658754 -112.73932499 70.96445256 -116 65 C-116.65742188 63.80310547 -116.65742188 63.80310547 -117.328125 62.58203125 C-122.3209647 51.52394613 -121.4700697 36.4329665 -118 25 C-112.74771173 11.46601375 -102.53863767 2.70648948 -89.73828125 -3.609375 C-60.50160168 -16.08173517 -28.81713021 -10.20949756 0 0 Z " fill="#FDFEFE" transform="translate(489,454)"/>
<path d="M0 0 C5.28 0 10.56 0 16 0 C21.61 11.88 27.22 23.76 33 36 C39.59250074 22.83644244 39.59250074 22.83644244 45.9375 9.5625 C46.69464101 7.93788085 47.4536486 6.31412983 48.21484375 4.69140625 C48.53573975 4.00248291 48.85663574 3.31355957 49.18725586 2.60375977 C50 1 50 1 51 0 C56.28 0 61.56 0 67 0 C67 20.79 67 41.58 67 63 C61.72 63 56.44 63 51 63 C50.505 50.625 50.505 50.625 50 38 C46.04 46.25 42.08 54.5 38 63 C35.03 63 32.06 63 29 63 C24.66666667 54.33333333 20.33333333 45.66666667 16 37 C15.67 45.58 15.34 54.16 15 63 C10.05 63 5.1 63 0 63 C0 42.21 0 21.42 0 0 Z " fill="#004B72" transform="translate(338,684)"/>
<path d="M0 0 C6.93845719 4.81022932 11.8823735 10.74275523 14.60546875 18.7890625 C16.53110935 29.58027614 15.5795288 39.90747071 9.59765625 49.171875 C4.19164529 56.20365454 -4.24680633 60.71358815 -13 62 C-22.51021399 62.92968438 -31.82814355 61.45494084 -39.87109375 56.08203125 C-47.63973249 49.56006856 -52.31381624 41.8515257 -53.203125 31.67578125 C-53.40364397 21.56628304 -50.76988272 12.68234518 -44 5 C-41.17816064 2.60666217 -38.2528351 0.75282306 -35 -1 C-34.40832031 -1.3403125 -33.81664062 -1.680625 -33.20703125 -2.03125 C-23.46128679 -6.67822749 -9.14855824 -5.14697016 0 0 Z M-32 17 C-35.58717962 21.59607388 -35.50500824 26.52060655 -35.3515625 32.15625 C-34.70897663 37.35405568 -32.19424922 39.9222629 -28.4375 43.3125 C-24.19782694 46.24765827 -20.02565253 46.63604515 -15 46 C-9.1646705 44.15337674 -5.91715881 41.48425857 -3 36 C-1.27762803 30.8328841 -1.34438378 25.89400242 -3.125 20.75 C-5.73693874 16.91915651 -8.80323629 14.09838185 -13 12 C-20.5427363 11.11112535 -26.2875795 11.74961351 -32 17 Z " fill="#004B72" transform="translate(317,687)"/>
<path d="M0 0 C5.61 0 11.22 0 17 0 C17.33 7.59 17.66 15.18 18 23 C20.02125 20.69 22.0425 18.38 24.125 16 C24.74906738 15.28972656 25.37313477 14.57945312 26.01611328 13.84765625 C26.52899902 13.25855469 27.04188477 12.66945313 27.5703125 12.0625 C28.43970459 11.0734668 28.43970459 11.0734668 29.32666016 10.06445312 C31.04675137 8.03127921 31.04675137 8.03127921 32.40380859 5.73242188 C35.7873576 0.32546018 35.7873576 0.32546018 39.34326172 -0.62890625 C42.0650501 -0.78730916 44.65666446 -0.70164543 47.375 -0.5 C48.30183594 -0.46390625 49.22867188 -0.4278125 50.18359375 -0.390625 C52.46005061 -0.29675049 54.72783215 -0.1657121 57 0 C55.3738426 3.39121482 53.47416668 6.0373945 51.0625 8.9375 C50.26972656 9.8965625 49.47695313 10.855625 48.66015625 11.84375 C46.79402875 14.07154104 44.90145001 16.27444423 42.99609375 18.46875 C42.49779053 19.04633057 41.9994873 19.62391113 41.48608398 20.21899414 C40.51144241 21.34606856 39.53066454 22.46787188 38.54321289 23.58374023 C35.04528207 27.30849249 35.04528207 27.30849249 34 32 C35.50686895 34.17760939 36.97615394 35.99793937 38.75 37.9375 C39.76585708 39.09224379 40.78147499 40.24719803 41.796875 41.40234375 C42.32474609 41.9938623 42.85261719 42.58538086 43.39648438 43.19482422 C45.97243442 46.094729 48.48730545 49.04532059 51 52 C51.45600586 52.527146 51.91201172 53.05429199 52.38183594 53.59741211 C54.92970184 56.57833899 57.08687543 59.57651393 59 63 C42.54713528 64.88585371 42.54713528 64.88585371 37.11816406 61.99951172 C33.88811963 59.37172975 31.51116036 56.11820821 29.17919922 52.69433594 C27.24939626 49.92149276 25.04926193 47.39719202 22.875 44.8125 C21.78832031 43.46091797 21.78832031 43.46091797 20.6796875 42.08203125 C19.16726823 40.13181795 19.16726823 40.13181795 18 39 C17.67 46.92 17.34 54.84 17 63 C11.39 63 5.78 63 0 63 C0 42.21 0 21.42 0 0 Z " fill="#004B72" transform="translate(600,684)"/>
<path d="M0 0 C14.85 0 29.7 0 45 0 C45 4.62 45 9.24 45 14 C35.76 14 26.52 14 17 14 C17 17.63 17 21.26 17 25 C23.93 25 30.86 25 38 25 C38 29.29 38 33.58 38 38 C31.07 38 24.14 38 17 38 C17 41.63 17 45.26 17 49 C26.24 49 35.48 49 45 49 C45 53.62 45 58.24 45 63 C30.15 63 15.3 63 0 63 C0 42.21 0 21.42 0 0 Z " fill="#004B72" transform="translate(499,684)"/>
<path d="M0 0 C14.85 0 29.7 0 45 0 C45 4.62 45 9.24 45 14 C35.76 14 26.52 14 17 14 C17 17.63 17 21.26 17 25 C23.6 25 30.2 25 37 25 C37 29.29 37 33.58 37 38 C30.4 38 23.8 38 17 38 C17 41.63 17 45.26 17 49 C26.24 49 35.48 49 45 49 C45 53.62 45 58.24 45 63 C30.15 63 15.3 63 0 63 C0 42.21 0 21.42 0 0 Z " fill="#004B72" transform="translate(550,684)"/>
<path d="M0 0 C1 1 1 1 1.09765625 4.59765625 C1.0909822 6.08596867 1.07902183 7.57426432 1.0625 9.0625 C1.05798828 9.82111328 1.05347656 10.57972656 1.04882812 11.36132812 C1.0370068 13.24091871 1.01907078 15.12046899 1 17 C-1.49395173 16.00822885 -3.97700107 15.01002517 -6.4375 13.9375 C-13.95759836 11.1862445 -21.77800273 10.94064188 -29.171875 14.01171875 C-33.14706552 16.16069995 -35.58302837 18.74908511 -37 23 C-37.49470704 28.62019635 -37.76832892 33.43590185 -35.25 38.5625 C-31.40620251 42.72661395 -28.56174432 44.81058618 -22.77734375 45.23828125 C-14.64829544 45.39540426 -8.36823022 44.66937865 -1 41 C-0.01 40.67 0.98 40.34 2 40 C2 45.28 2 50.56 2 56 C-7.86497721 62.29679396 -18.42505262 63.34619886 -29.9609375 61.53515625 C-38.53887149 59.50480493 -45.34072685 55.81276147 -50.4375 48.5 C-56.12240005 39.06180959 -56.81582726 29.50877871 -54.7109375 18.8203125 C-52.56540958 10.30893251 -48.19383195 5.04125898 -41 0 C-29.3914698 -6.83080455 -11.72734987 -6.21300025 0 0 Z " fill="#004B72" transform="translate(259,687)"/>
<path d="M0 0 C0.79519043 0.00128906 1.59038086 0.00257813 2.40966797 0.00390625 C8.19226275 0.09868346 12.85992466 0.94468874 18.1875 3.3125 C18.1875 8.2625 18.1875 13.2125 18.1875 18.3125 C15.4340625 17.57 15.4340625 17.57 12.625 16.8125 C6.17058033 15.2026918 0.69901182 14.73395168 -5.8125 16.3125 C-5.8125 17.9625 -5.8125 19.6125 -5.8125 21.3125 C-4.76191406 21.82039062 -3.71132813 22.32828125 -2.62890625 22.8515625 C17.56298961 32.70343785 17.56298961 32.70343785 21.25 38.625 C23.03599435 45.64991112 23.03781983 51.19918272 19.37109375 57.59375 C15.43956524 63.30290031 9.74069207 65.07706215 3.1875 66.3125 C-6.00001669 67.1841362 -14.99109037 65.99460223 -23.8125 63.3125 C-25.8125 61.3125 -25.8125 61.3125 -26.0078125 58.0546875 C-25.98460937 56.77851562 -25.96140625 55.50234375 -25.9375 54.1875 C-25.91945313 52.90617188 -25.90140625 51.62484375 -25.8828125 50.3046875 C-25.85960937 49.31726563 -25.83640625 48.32984375 -25.8125 47.3125 C-22.64685575 47.80121559 -19.78365724 48.32250667 -16.75 49.375 C-11.35389762 51.00355342 -2.91951143 51.86600571 2.1875 49.3125 C2.1875 47.6625 2.1875 46.0125 2.1875 44.3125 C0.59421875 43.55066406 0.59421875 43.55066406 -1.03125 42.7734375 C-19.12264253 34.01105403 -19.12264253 34.01105403 -23.8125 27.5625 C-25.54991427 21.91590363 -25.58806482 16.68481591 -23.75 11.0625 C-17.59721459 2.32951425 -10.38366309 -0.06935446 0 0 Z " fill="#004B72" transform="translate(471.8125,682.6875)"/>
<path d="M0 0 C10.89 0 21.78 0 33 0 C33 4.62 33 9.24 33 14 C22.11 14 11.22 14 0 14 C0 9.38 0 4.76 0 0 Z " fill="#004B72" transform="translate(410,713)"/>
</svg>
